<svg width="24" height="24" viewBox="0 0 24 24" fill="none" xmlns="http://www.w3.org/2000/svg">
<path d="M12.6068 12.9224C12.8184 12.4123 13.4043 12.1698 13.9144 12.3813C14.4242 12.593 14.6658 13.178 14.4544 13.688L14.4056 13.8042C14.5545 13.9164 14.696 14.039 14.8284 14.1714C14.9605 14.3035 15.0827 14.4446 15.1946 14.5933L15.3118 14.5454C15.8219 14.334 16.4068 14.5764 16.6185 15.0864C16.8298 15.5964 16.5882 16.1814 16.0784 16.3931L15.9603 16.4409C15.9864 16.6259 16.0003 16.8129 16.0003 17.0005C16.0003 17.1872 15.9852 17.373 15.9593 17.5571L16.0784 17.6069C16.5884 17.8187 16.8301 18.4045 16.6185 18.9146C16.4067 19.4244 15.8218 19.666 15.3118 19.4546L15.1946 19.4058C15.0825 19.5545 14.9607 19.6963 14.8284 19.8286C14.6958 19.9612 14.5538 20.0835 14.4046 20.1958L14.4534 20.314C14.6644 20.8244 14.4218 21.4096 13.9114 21.6206C13.4012 21.8311 12.8167 21.5878 12.6058 21.0776L12.5569 20.9604C12.187 21.0125 11.8118 21.0104 11.4417 20.9585L11.3929 21.0786C11.1814 21.5888 10.5964 21.8311 10.0862 21.6196C9.57605 21.4082 9.33375 20.8232 9.54523 20.313L9.59308 20.1958C9.2944 19.9707 9.02888 19.7046 8.80402 19.4058L8.68781 19.4546C8.17786 19.6659 7.59286 19.4244 7.38116 18.9146C7.16959 18.4045 7.41211 17.8186 7.92218 17.6069L8.03839 17.5581C7.98623 17.1876 7.98611 16.8114 8.03839 16.4409L7.92218 16.3931C7.41224 16.1815 7.16988 15.5964 7.38116 15.0864C7.59277 14.5765 8.1778 14.3341 8.68781 14.5454L8.80499 14.5933C9.02972 14.2949 9.29476 14.0289 9.59308 13.8042L9.54523 13.688C9.33389 13.178 9.57628 12.593 10.0862 12.3813C10.5962 12.17 11.1813 12.4124 11.3929 12.9224L11.4407 13.0405C11.6257 13.0144 11.8126 12.9995 12.0003 12.9995C12.1872 12.9995 12.3736 13.0126 12.5579 13.0386L12.6068 12.9224ZM12.0003 14.9995C11.7377 14.9995 11.4773 15.0514 11.2347 15.1519C10.7447 15.3549 10.3547 15.7448 10.1517 16.2349C9.94883 16.7247 9.94892 17.2752 10.1517 17.7651C10.3541 18.254 10.7424 18.6427 11.2308 18.8462C11.2321 18.8467 11.2333 18.8476 11.2347 18.8481C11.2356 18.8485 11.2367 18.8487 11.2376 18.8491C11.7268 19.0508 12.276 19.0505 12.765 18.8481C13.0076 18.7476 13.2286 18.6003 13.4144 18.4146C13.6 18.2289 13.7474 18.0086 13.848 17.7661C13.9485 17.5235 14.0003 17.2631 14.0003 17.0005C14.0003 16.7378 13.9484 16.4775 13.848 16.2349C13.7475 15.9922 13.6001 15.7712 13.4144 15.5854C13.2293 15.4004 13.0096 15.2533 12.7679 15.1528L12.765 15.1519C12.7639 15.1514 12.7631 15.1503 12.762 15.1499C12.5205 15.0505 12.2615 14.9996 12.0003 14.9995ZM9.16241 2.0083C10.2348 2.02997 11.2929 2.26712 12.2718 2.70557C13.2507 3.14412 14.1324 3.77523 14.8626 4.56104H14.8616C15.5246 5.27377 16.0475 6.1016 16.4124 6.99951H17.513C18.6786 7.01523 19.8093 7.4021 20.7415 8.10205C21.6735 8.80204 22.3594 9.78017 22.6995 10.895C23.0395 12.0101 23.0169 13.2051 22.6341 14.3062C22.251 15.4073 21.5274 16.3585 20.5687 17.022C20.1145 17.3362 19.4913 17.2232 19.1771 16.769C18.8632 16.315 18.9771 15.6916 19.431 15.3774C20.0409 14.9552 20.5007 14.3496 20.7444 13.6489C20.988 12.9483 21.0027 12.1885 20.7864 11.479C20.57 10.7695 20.1335 10.1462 19.5403 9.70068C18.9472 9.25551 18.2272 9.00951 17.4857 8.99951H15.7093C15.2679 8.99919 14.878 8.70949 14.7513 8.28662C14.4871 7.40572 14.0241 6.59676 13.3978 5.92334L13.3968 5.92236C12.8492 5.33317 12.1884 4.85962 11.4544 4.53076C10.7202 4.20193 9.92668 4.02357 9.12238 4.00732C8.31819 3.99115 7.51855 4.13715 6.77179 4.43604C6.02486 4.73508 5.34473 5.18169 4.77374 5.74854C4.20295 6.31528 3.75199 6.99131 3.44757 7.73584C3.1432 8.48042 2.99197 9.27917 3.00226 10.0835C3.01265 10.8879 3.18464 11.6829 3.50812 12.4194C3.83164 13.1559 4.29982 13.8207 4.88507 14.3726C5.28694 14.7514 5.3059 15.3838 4.92706 15.7856C4.5483 16.1874 3.91586 16.2062 3.51398 15.8276C2.7336 15.0919 2.10847 14.2061 1.67706 13.2241C1.24573 12.242 1.01614 11.1824 1.00226 10.1099C0.988451 9.03722 1.19009 7.97198 1.59601 6.979C2.00196 5.98608 2.6033 5.08438 3.36456 4.32861C4.12577 3.57292 5.0319 2.97832 6.02765 2.57959C7.02341 2.18097 8.09005 1.98675 9.16241 2.0083Z" fill="black"/>
</svg>
