<svg width="24" height="24" viewBox="0 0 24 24" fill="none" xmlns="http://www.w3.org/2000/svg">
<path d="M15 1C15.2652 1 15.5195 1.10543 15.707 1.29297L20.707 6.29297C20.8946 6.4805 21 6.73478 21 7V20C21 20.7957 20.6837 21.5585 20.1211 22.1211C19.5585 22.6837 18.7957 23 18 23H4C3.44772 23 3 22.5523 3 22C3 21.4477 3.44772 21 4 21H18C18.2652 21 18.5195 20.8946 18.707 20.707C18.8946 20.5195 19 20.2652 19 20V7.41406L14.5859 3H6C5.73478 3 5.4805 3.10543 5.29297 3.29297C5.10543 3.4805 5 3.73478 5 4V8C5 8.55228 4.55228 9 4 9C3.44772 9 3 8.55228 3 8V4C3 3.20435 3.3163 2.44152 3.87891 1.87891C4.44152 1.3163 5.20435 1 6 1H15ZM8 11C8.55228 11 9 11.4477 9 12V13C9 13.5523 8.55228 14 8 14C7.44772 14 7 13.5523 7 13H6V17C6.55228 17 7 17.4477 7 18C7 18.5523 6.55228 19 6 19H4C3.44772 19 3 18.5523 3 18C3 17.4477 3.44772 17 4 17V13H3C3 13.5523 2.55228 14 2 14C1.44772 14 1 13.5523 1 13V12C1 11.4477 1.44772 11 2 11H8Z" fill="black"/>
</svg>
