<svg width="24" height="24" viewBox="0 0 24 24" fill="none" xmlns="http://www.w3.org/2000/svg">
<path d="M21.1472 2.00586C21.4827 2.03101 21.8074 2.14052 22.0905 2.3252C22.414 2.53631 22.6703 2.83627 22.8268 3.18945C22.9833 3.5426 23.0342 3.93402 22.9733 4.31543C22.9123 4.69682 22.7418 5.05304 22.4831 5.33984L22.4821 5.34082L15.2595 13.3301H15.2585C15.0924 13.5137 15.0009 13.7525 15.0007 14V21L14.9968 21.127C14.978 21.4236 14.8928 21.713 14.7477 21.9736C14.5819 22.2714 14.3422 22.5218 14.0524 22.7012C13.7626 22.8805 13.431 22.9826 13.0905 22.998C12.7927 23.0115 12.496 22.9583 12.2224 22.8428L12.1061 22.7891L10.1061 21.7891C9.77387 21.6229 9.49381 21.3678 9.29852 21.0518C9.12768 20.7752 9.02793 20.4616 9.00555 20.1387L9.00067 20V14C9.00045 13.7525 8.9079 13.5137 8.74188 13.3301L1.5163 5.34082V5.33984C1.25716 5.05272 1.08695 4.6964 1.02606 4.31445C0.965247 3.93257 1.01553 3.54089 1.17255 3.1875C1.32961 2.83417 1.58666 2.53402 1.91083 2.32324C2.23491 2.11266 2.6132 2.00019 2.99969 2H21.0026L21.1472 2.00586Z" fill="black"/>
</svg>
